<mxfile host="app.diagrams.net" modified="2024-05-03T18:43:36.165Z" agent="Mozilla/5.0 (Windows NT 10.0; Win64; x64) AppleWebKit/537.36 (KHTML, like Gecko) Chrome/121.0.0.0 Safari/537.36 OPR/107.0.0.0" version="24.3.1" etag="rM0psjzrLRkKDwqeNyin" type="github">
  <diagram name="Страница — 1" id="C93QFbcwQb1tXIDO0bhW">
    <mxGraphModel>
      <root>
        <mxCell id="0" />
        <mxCell id="1" parent="0" />
      </root>
    </mxGraphModel>
  </diagram>
</mxfile>
